<?xml version="1.0" encoding="UTF-8"?>
<svg version="1.1" viewBox="0 0 602 168" xml:space="preserve" xmlns="http://www.w3.org/2000/svg">
  <style type="text/css">
    .st0 {
      fill: #5724E8;
    }
  </style>
  <g transform="translate(-10,-266)"       fill="white"
>
    <polygon points="192.55 304.82 192.55 377.2 233.43 377.2 233.43 394.17 173.39 394.17 173.39 304.82" />
    <path
      fill="white"
      d="m301.19 326.42v67.76h-17.87v-6.43c-4.76 4.89-11.7 8.1-19.8 8.1-17.23 0-26.23-11.83-26.23-27.26v-42.17h19.03v39.73c0 7.46 4.88 12.73 12.86 12.73 7.84 0 12.99-5.27 12.99-12.34v-40.11h19.02z" />
    <polygon
            fill="white"

      points="330.64 359.2 305.95 326.42 327.04 326.42 342.21 346.6 357.25 326.42 377.44 326.42 352.36 360.1 377.95 394.17 356.99 394.17 340.79 372.7 324.34 394.17 304.15 394.17" />
    <path
            fill="white"

      d="m425.39 360.23c0-10.8-6.94-18.39-17.49-18.39-10.54 0-17.61 7.58-17.61 18.51 0 10.8 7.07 18.51 17.61 18.51 10.29 0.01 17.49-7.7 17.49-18.63m-54.25 0.13c0-20.31 15.17-35.49 36.64-35.49 21.34 0 36.64 15.17 36.64 35.49 0 20.19-15.3 35.48-36.64 35.48-21.47 0-36.64-15.3-36.64-35.48" />
    <path
            fill="white"

      d="m514.62 351.49v42.69h-18.9v-38.96c0-8.62-5.66-13.5-13.37-13.5-7.59 0-13.5 5.4-13.63 12.34v40.11h-19.02v-67.76h18v6.3c4.63-4.76 11.7-7.97 20.44-7.97 16.2 0 26.48 10.93 26.48 26.75" />
    <path
            fill="white"

      d="m521.18 326.42h19.03v67.76h-19.03zm0-12.34c0-5.32 4.24-9.27 9.56-9.27s9.46 3.94 9.46 9.27c0 5.42-4.14 9.27-9.46 9.27s-9.56-3.84-9.56-9.27" />
    <path
            fill="white"

      d="m543.26 377.97 16.07-6.17c1.8 5.91 6.69 9.39 14.27 9.39 5.66 0 9-2.32 9-6.17 0-11.83-36.13-6.17-36.13-29.44 0-12.86 10.54-20.7 27-20.7 13.5 0 23.27 5.53 26.1 14.91l-16.07 6.17c-1.67-4.63-5.27-6.94-10.29-6.94-5.14 0-7.97 2.06-7.97 5.53 0 10.93 36.26 4.37 36.26 29.31 0 13.63-11.19 21.98-28.54 21.98-15.04 0-25.85-6.17-29.7-17.87" />
    <path class="st0"
      d="m82.6 385.05c-19.14 0-34.71-15.57-34.71-34.72 0-19.14 15.57-34.71 34.71-34.71s34.71 15.57 34.71 34.71c0.01 19.14-15.57 34.72-34.71 34.72m0-91.08c-27.42 0-50.26 19.59-55.31 45.54h-16.79v21.65h16.79c5.05 25.95 27.89 45.54 55.31 45.54 31.13 0 56.36-25.23 56.36-56.36s-25.23-56.37-56.36-56.37" />
    <path class="st0"
      d="m82.6 353.09c-1.52 0-2.76-1.24-2.76-2.76s1.24-2.76 2.76-2.76 2.76 1.24 2.76 2.76-1.24 2.76-2.76 2.76m0-13.57c-5.97 0-10.81 4.84-10.81 10.81s4.84 10.81 10.81 10.81 10.81-4.84 10.81-10.81-4.84-10.81-10.81-10.81" />
  </g>
</svg>
